<?xml version="1.0" encoding="UTF-8"?>
<svg id="Capa_2" data-name="Capa 2" xmlns="http://www.w3.org/2000/svg" viewBox="0 0 339 46.83">
  <g id="Capa_1-2" data-name="Capa 1">
    <g>
      <path d="M0,34.42h2.46v6.6c0,1.05.03,1.73.09,2.04.1.5.36.9.75,1.2.4.3.94.45,1.63.45s1.23-.14,1.58-.43c.35-.28.57-.64.64-1.05.07-.42.11-1.11.11-2.07v-6.74h2.46v6.4c0,1.46-.07,2.5-.2,3.1-.13.6-.38,1.11-.74,1.53-.36.41-.84.75-1.43.99-.6.25-1.38.37-2.35.37-1.16,0-2.05-.13-2.65-.4-.6-.27-1.08-.62-1.43-1.05-.35-.43-.58-.88-.69-1.35-.16-.7-.24-1.73-.24-3.09v-6.5h0Z" fill="#fff"/>
      <polygon points="12.34 46.61 12.34 34.42 14.74 34.42 19.73 42.56 19.73 34.42 22.01 34.42 22.01 46.61 19.54 46.61 14.63 38.66 14.63 46.61 12.34 46.61 12.34 46.61" fill="#fff"/>
      <polygon points="24.54 46.61 24.54 34.42 27 34.42 27 46.61 24.54 46.61 24.54 46.61" fill="#fff"/>
      <polygon points="32.46 46.61 28.1 34.42 30.77 34.42 33.85 43.45 36.84 34.42 39.45 34.42 35.09 46.61 32.46 46.61 32.46 46.61" fill="#fff"/>
      <polygon points="40.71 46.61 40.71 34.42 49.75 34.42 49.75 36.49 43.17 36.49 43.17 39.19 49.29 39.19 49.29 41.24 43.17 41.24 43.17 44.56 49.98 44.56 49.98 46.61 40.71 46.61 40.71 46.61" fill="#fff"/>
      <path d="M52.07,46.61v-12.19h5.18c1.3,0,2.25.11,2.84.33.59.22,1.06.61,1.42,1.17.35.56.53,1.2.53,1.92,0,.91-.27,1.67-.81,2.27-.54.59-1.34.97-2.41,1.12.53.31.97.65,1.32,1.02.35.37.81,1.03,1.4,1.98l1.49,2.38h-2.94l-1.78-2.65c-.63-.95-1.06-1.54-1.3-1.79-.23-.25-.48-.41-.74-.51-.26-.09-.67-.14-1.24-.14h-.5v5.09h-2.46ZM54.54,39.58h1.82c1.18,0,1.92-.05,2.21-.15.29-.1.52-.27.69-.52.16-.24.25-.55.25-.91,0-.41-.11-.74-.33-.99-.22-.25-.53-.41-.93-.48-.2-.03-.8-.04-1.8-.04h-1.92v3.09h0Z" fill="#fff"/>
      <path d="M63.74,42.65l2.4-.24c.14.81.43,1.4.88,1.77.44.37,1.03.56,1.78.56.79,0,1.39-.17,1.79-.51.4-.33.6-.73.6-1.18,0-.29-.08-.53-.26-.74-.17-.2-.46-.38-.89-.53-.29-.1-.95-.28-1.97-.53-1.32-.33-2.25-.73-2.78-1.21-.75-.67-1.12-1.49-1.12-2.45,0-.62.18-1.2.53-1.74.35-.54.86-.95,1.52-1.23.66-.28,1.46-.42,2.4-.42,1.53,0,2.68.33,3.46,1,.77.67,1.18,1.57,1.22,2.69l-2.46.11c-.1-.63-.33-1.08-.68-1.35-.35-.28-.87-.41-1.56-.41s-1.28.15-1.68.44c-.26.19-.39.44-.39.75,0,.29.12.54.37.74.31.26,1.06.53,2.26.81,1.2.28,2.08.58,2.66.88.57.3,1.02.72,1.35,1.24.32.53.49,1.17.49,1.94,0,.7-.19,1.35-.58,1.96-.39.61-.94,1.06-1.65,1.36-.71.3-1.6.45-2.65.45-1.54,0-2.73-.35-3.55-1.07-.83-.71-1.32-1.75-1.48-3.11h0Z" fill="#fff"/>
      <polygon points="75.65 46.61 75.65 34.42 78.11 34.42 78.11 46.61 75.65 46.61 75.65 46.61" fill="#fff"/>
      <path d="M80.45,34.42h4.5c1.01,0,1.79.08,2.32.23.72.21,1.33.58,1.84,1.12.51.54.9,1.2,1.17,1.97.26.78.4,1.74.4,2.88,0,1-.12,1.87-.37,2.59-.3.89-.74,1.6-1.31,2.15-.43.42-1,.74-1.73.97-.54.17-1.27.26-2.18.26h-4.63v-12.19h0ZM82.91,36.49v8.07h1.84c.69,0,1.18-.04,1.49-.12.4-.1.73-.27.99-.51.26-.24.48-.63.64-1.18.16-.54.25-1.29.25-2.23s-.09-1.66-.25-2.17c-.17-.51-.4-.9-.7-1.18-.3-.28-.68-.47-1.14-.57-.34-.08-1.02-.12-2.02-.12h-1.1Z" fill="#fff"/>
      <path d="M103.75,46.61h-2.68l-1.06-2.77h-4.87l-1,2.77h-2.61l4.75-12.19h2.6l4.88,12.19h0ZM99.22,41.79l-1.68-4.52-1.65,4.52h3.33Z" fill="#fff"/>
      <path d="M105.05,34.42h4.5c1.01,0,1.79.08,2.32.23.72.21,1.33.58,1.84,1.12.51.54.9,1.2,1.17,1.97.26.78.4,1.74.4,2.88,0,1-.12,1.87-.37,2.59-.3.89-.74,1.6-1.31,2.15-.43.42-1,.74-1.73.97-.54.17-1.27.26-2.18.26h-4.63v-12.19h0ZM107.51,36.49v8.07h1.84c.69,0,1.18-.04,1.49-.12.4-.1.73-.27.99-.51.26-.24.48-.63.64-1.18.16-.54.25-1.29.25-2.23s-.09-1.66-.25-2.17c-.17-.51-.4-.9-.7-1.18-.3-.28-.68-.47-1.14-.57-.34-.08-1.02-.12-2.02-.12h-1.1Z" fill="#fff"/>
      <path d="M121.47,42.65l2.4-.24c.14.81.43,1.4.88,1.77.44.37,1.03.56,1.78.56.79,0,1.39-.17,1.79-.51.4-.33.6-.73.6-1.18,0-.29-.08-.53-.26-.74-.17-.2-.46-.38-.89-.53-.29-.1-.95-.28-1.97-.53-1.32-.33-2.25-.73-2.78-1.21-.75-.67-1.12-1.49-1.12-2.45,0-.62.18-1.2.53-1.74.35-.54.86-.95,1.52-1.23.66-.28,1.46-.42,2.4-.42,1.53,0,2.68.33,3.46,1,.77.67,1.18,1.57,1.22,2.69l-2.46.11c-.1-.63-.33-1.08-.68-1.35-.35-.28-.87-.41-1.56-.41s-1.28.15-1.68.44c-.26.19-.39.44-.39.75,0,.29.12.54.37.74.31.26,1.06.53,2.26.81,1.2.28,2.08.58,2.66.88.57.3,1.02.72,1.35,1.24.32.53.49,1.17.49,1.94,0,.7-.19,1.35-.58,1.96-.39.61-.94,1.06-1.65,1.36-.71.3-1.6.45-2.65.45-1.54,0-2.73-.35-3.55-1.07-.83-.71-1.32-1.75-1.48-3.11h0Z" fill="#fff"/>
      <polygon points="133.38 46.61 133.38 34.42 135.84 34.42 135.84 46.61 133.38 46.61 133.38 46.61" fill="#fff"/>
      <polygon points="138.15 46.61 138.15 34.42 141.83 34.42 144.05 42.74 146.23 34.42 149.92 34.42 149.92 46.61 147.64 46.61 147.64 37.02 145.22 46.61 142.85 46.61 140.43 37.02 140.43 46.61 138.15 46.61 138.15 46.61" fill="#fff"/>
      <path d="M151.87,40.59c0-1.24.18-2.29.56-3.13.28-.62.66-1.18,1.14-1.67.48-.49,1-.86,1.58-1.1.76-.32,1.63-.48,2.63-.48,1.8,0,3.23.56,4.31,1.67,1.08,1.11,1.62,2.66,1.62,4.65s-.54,3.51-1.61,4.62c-1.07,1.11-2.5,1.67-4.29,1.67s-3.26-.55-4.33-1.66c-1.07-1.11-1.6-2.63-1.6-4.57h0ZM154.41,40.51c0,1.38.32,2.43.96,3.14.64.71,1.45,1.07,2.43,1.07s1.79-.35,2.42-1.06c.63-.71.94-1.77.94-3.18s-.31-2.44-.92-3.13c-.61-.69-1.43-1.03-2.44-1.03s-1.83.35-2.46,1.04c-.62.7-.93,1.74-.93,3.15h0ZM156.27,33.72l1.15-2.49h2.62l-2.29,2.49h-1.48Z" fill="#fff"/>
      <polygon points="165.64 46.61 165.64 34.42 168.04 34.42 173.03 42.56 173.03 34.42 175.32 34.42 175.32 46.61 172.84 46.61 167.93 38.66 167.93 46.61 165.64 46.61 165.64 46.61" fill="#fff"/>
      <path d="M182.66,34.42h4.87c.97,0,1.69.04,2.16.12.47.08.9.25,1.27.5.37.26.68.59.93,1.02.25.42.37.9.37,1.43,0,.57-.15,1.1-.46,1.57-.31.48-.73.83-1.25,1.07.74.22,1.31.58,1.71,1.1.4.52.6,1.14.6,1.84,0,.55-.13,1.09-.39,1.62-.26.52-.61.94-1.06,1.25s-1,.51-1.65.58c-.41.04-1.4.07-2.97.08h-4.15v-12.19h0ZM185.12,36.45v2.82h1.61c.96,0,1.56-.01,1.79-.04.42-.05.75-.19.99-.43.24-.24.36-.56.36-.95s-.1-.68-.31-.92c-.21-.24-.52-.38-.93-.43-.24-.03-.95-.04-2.1-.04h-1.41ZM185.12,41.3v3.26h2.28c.89,0,1.45-.02,1.69-.07.37-.07.66-.23.89-.49.23-.26.35-.6.35-1.04,0-.37-.09-.68-.27-.93-.18-.26-.43-.44-.77-.56-.33-.12-1.06-.17-2.18-.17h-1.99Z" fill="#fff"/>
      <path d="M194.45,40.59c0-1.24.18-2.29.56-3.13.28-.62.66-1.18,1.14-1.67.48-.49,1-.86,1.58-1.1.76-.32,1.63-.48,2.63-.48,1.8,0,3.23.56,4.31,1.67,1.08,1.11,1.62,2.66,1.62,4.65s-.54,3.51-1.61,4.62c-1.07,1.11-2.5,1.67-4.29,1.67s-3.26-.55-4.33-1.66c-1.07-1.11-1.6-2.63-1.6-4.57h0ZM196.99,40.51c0,1.38.32,2.43.96,3.14.64.71,1.45,1.07,2.43,1.07s1.79-.35,2.42-1.06c.63-.71.94-1.77.94-3.18s-.31-2.44-.92-3.13c-.61-.69-1.43-1.03-2.44-1.03s-1.83.35-2.46,1.04c-.62.7-.93,1.74-.93,3.15h0Z" fill="#fff"/>
      <polygon points="208.26 46.61 208.26 34.52 210.73 34.52 210.73 44.56 216.85 44.56 216.85 46.61 208.26 46.61 208.26 46.61" fill="#fff"/>
      <path d="M218.53,46.61v-12.19h2.46v12.19h-2.46ZM218.24,33.72l1.15-2.49h2.62l-2.29,2.49h-1.48Z" fill="#fff"/>
      <polygon points="226.44 46.61 222.09 34.42 224.76 34.42 227.84 43.45 230.83 34.42 233.44 34.42 229.07 46.61 226.44 46.61 226.44 46.61" fill="#fff"/>
      <path d="M244.43,46.61h-2.68l-1.06-2.77h-4.87l-1,2.77h-2.61l4.75-12.19h2.6l4.88,12.19h0ZM239.89,41.79l-1.68-4.52-1.65,4.52h3.33Z" fill="#fff"/>
      <path d="M245.74,46.61v-12.19h5.18c1.3,0,2.25.11,2.84.33.59.22,1.06.61,1.42,1.17.35.56.53,1.2.53,1.92,0,.91-.27,1.67-.81,2.27-.54.59-1.34.97-2.41,1.12.53.31.97.65,1.32,1.02.35.37.81,1.03,1.4,1.98l1.49,2.38h-2.94l-1.78-2.65c-.63-.95-1.06-1.54-1.3-1.79-.23-.25-.48-.41-.74-.51-.26-.09-.67-.14-1.24-.14h-.5v5.09h-2.46ZM248.2,39.58h1.82c1.18,0,1.92-.05,2.21-.15.29-.1.52-.27.69-.52.16-.24.25-.55.25-.91,0-.41-.11-.74-.33-.99-.22-.25-.53-.41-.93-.48-.2-.03-.8-.04-1.8-.04h-1.92v3.09h0Z" fill="#fff"/>
      <path d="M303.99,25.01l-3.01,1.21-.11-.32-9.07,3.65c-.23.09-.39.31-.39.56v14.33l.36.2v1.87h-2.39s0-2.99,0-2.99l.31.08v-13.48c0-1.04.7-1.94,1.7-2.21l8.95-3.63-.12-.36,3.77-1.52,3.78,1.56-.12.35,8.91,3.65c.95.33,1.73.88,1.73,2.21l-.05,13.63.31-.14v2.95h-2.39v-1.84l.36-.18.05-14.49c0-.25-.28-.46-.51-.55l-8.94-3.66-.11.32-3.01-1.21h0Z" fill="#fff" fill-rule="evenodd"/>
      <polygon points="303.99 29.6 302.31 30.28 302.2 29.9 295.59 32.56 295.59 45.85 295.95 46.01 295.95 46.52 293.56 46.51 293.56 45.34 293.86 45.35 293.86 31.39 301.65 28.25 301.54 27.91 303.99 26.93 306.43 27.97 306.33 28.28 314.06 31.49 314.06 45.41 314.32 45.45 314.32 46.61 311.93 46.61 311.93 46.07 312.33 45.88 312.33 32.64 305.78 29.93 305.66 30.28 303.99 29.6 303.99 29.6" fill="#fff" fill-rule="evenodd"/>
      <path d="M303.99,17.99l-5.06,2.04.1.31-9.83,3.96c-2.25,1.05-3.69,3.3-3.69,5.77v10.94l-.31-.19v5.41c.79.12,1.6.19,2.39.21v-4.04s-.41-.29-.41-.29v-12.22h0c0-1.71.99-3.26,2.53-3.98l9.83-4,.12.37,4.31-1.74,4.33,1.76.13-.38,9.8,4.04c1.49.84,2.45,2.18,2.54,3.93,0,0,0,0,0,0l-.06,12.41-.39.3-.03,4c.8-.02,1.62-.1,2.41-.22l.02-5.36-.26.13.04-11.36c-.04-2.26-1.53-4.42-3.72-5.45l-9.81-3.97.1-.35-5.09-2.05h0Z" fill="#fff" fill-rule="evenodd"/>
      <polygon points="305.62 46.61 305.62 37.09 303.99 36.38 302.31 37.06 302.31 46.61 305.62 46.61 305.62 46.61" fill="#fff" fill-rule="evenodd"/>
      <polygon points="303.99 33.66 308.11 35.38 308.11 46.61 309.79 46.61 309.79 34.25 305.04 32.31 305.05 31.92 303.99 31.49 302.84 31.95 302.92 32.3 298.14 34.23 298.14 46.61 299.76 46.61 299.76 35.36 303.99 33.66 303.99 33.66" fill="#fff" fill-rule="evenodd"/>
      <path d="M303.99,16.1l-5.61,2.26-.11-.34-10.08,4.09c-3.12,1.45-5.12,4.58-5.12,8.02v9.24l.42.3v6.24c-.84-.21-1.68-.48-2.49-.8v-7.06s.36.16.36.16v-8c0-4.39,2.67-8.33,6.74-9.98l9.63-3.89-.1-.31,6.38-2.57,6.41,2.61-.1.31,9.86,4.03c4.07,1.76,6.53,5.41,6.53,9.8v8.19l.34-.12-.09,6.97c-.81.32-1.6.6-2.44.81l.05-6.2.35-.24.1-9.5c-.16-3.44-2.13-6.65-5.27-8l-10-4.07-.11.32-5.64-2.28h0Z" fill="#fff" fill-rule="evenodd"/>
      <path d="M303.99,11.56l-6.93,2.8-.11-.34-10.05,4.14c-3.41,1.49-7.59,4.45-7.99,12.11v6.37l.41.29-.06,7.28c-1-.34-1.75-.88-2.44-1.45v-7.43l.42.18v-4.14c-.01-9.39,5.12-13.45,9.96-15.18l9.21-3.76-.11-.32,7.72-3.12,7.7,3.15-.11.32,10.2,4.17c2.97,1.1,8.46,5,9.05,12.99v6.1s.41-.13.41-.13l-.1,7.38c-.58.41-1.45,1.09-2.45,1.53l.06-7.4.41-.3v-7.09c-.24-2.87-1.36-8.75-8.2-11.62l-9.9-4.04-.12.35-6.97-2.82h0Z" fill="#fff" fill-rule="evenodd"/>
      <path d="M304.04,7.12l-8.27,3.34-.17-.34-10.36,4.27c-4.5,1.77-9.95,7.1-10.36,15.14l-.04,4.38.36.27-.1,7.04c-1.21-.96-1.84-1.78-2.44-2.62l.05-6.08.36.23.07-2.98c.28-9.45,6.23-14.87,12.1-17.26l9.88-4.07-.11-.33,9.01-3.63,9.02,3.64-.08.37,9.54,3.91c4.22,1.47,12.03,6.8,12.52,16.66v3.84l.38-.2v6.07c-.38.56-1.3,1.8-2.47,2.78l.06-7.21.36-.27-.05-4.78c-.37-6.03-3.92-12.62-12.16-15.62l-8.69-3.6-.14.41-8.22-3.35h0Z" fill="#fff" fill-rule="evenodd"/>
      <path d="M270.66,31.16l.1-3.15c1.77-12.14,10.77-16.94,14.58-18.17l9.01-3.7.1.31,9.58-3.86,9.57,3.89.1-.31,7.47,3.02c13.08,4.46,15.94,14.4,16.31,20.44v1.63s-.37.32-.37.32l.02,4.02c1.78-2.96,1.88-7.19,1.88-8.23-1.84-13.41-12.56-18.1-16.46-19.46l-8.3-3.37.12-.35-10.29-4.2-10.37,4.19.11.34-8.52,3.51c-8.86,3.06-15.14,10.09-16.21,19.5,0,2.67.57,5.32,1.66,7.75.06.11.13.19.22.23v-4.12l-.3-.24h0Z" fill="#fff" fill-rule="evenodd"/>
    </g>
  </g>
</svg>