<?xml version="1.0" encoding="UTF-8"?>
<svg id="Capa_2" data-name="Capa 2" xmlns="http://www.w3.org/2000/svg" viewBox="0 0 141.73 145.68">
  <g id="Capa_1-2" data-name="Capa 1">
    <g>
      <path d="M33.32,119.96h5.1v13.68c0,2.17.06,3.58.19,4.22.22,1.04.74,1.86,1.56,2.49.82.63,1.95.94,3.37.94s2.54-.29,3.28-.89c.74-.59,1.18-1.32,1.32-2.18.15-.86.22-2.29.22-4.29v-13.98h5.1v13.27c0,3.04-.14,5.18-.41,6.43-.28,1.25-.78,2.31-1.52,3.17-.74.86-1.74,1.55-2.97,2.06-1.24.51-2.87.76-4.87.76-2.41,0-4.24-.28-5.49-.84-1.25-.56-2.23-1.28-2.95-2.17-.72-.89-1.2-1.82-1.43-2.8-.34-1.45-.5-3.58-.5-6.41v-13.48h0Z" fill="#fff"/>
      <path d="M59.81,137.01l4.97-.49c.29,1.67.9,2.89,1.82,3.68.91.78,2.14,1.17,3.69,1.17,1.64,0,2.88-.35,3.71-1.05.84-.69,1.25-1.51,1.25-2.44,0-.6-.18-1.11-.53-1.52-.35-.42-.96-.79-1.84-1.09-.59-.21-1.96-.58-4.08-1.11-2.74-.68-4.65-1.51-5.75-2.5-1.55-1.39-2.33-3.08-2.33-5.08,0-1.29.36-2.49,1.09-3.61.73-1.12,1.78-1.97,3.15-2.56,1.38-.58,3.03-.88,4.97-.88,3.18,0,5.56.69,7.17,2.08,1.6,1.39,2.44,3.25,2.52,5.57l-5.1.22c-.22-1.3-.69-2.24-1.41-2.8-.72-.57-1.79-.85-3.23-.85s-2.65.3-3.48.91c-.54.39-.81.91-.81,1.56,0,.6.25,1.11.76,1.54.64.54,2.21,1.11,4.69,1.69,2.48.59,4.32,1.19,5.51,1.82,1.19.63,2.12,1.48,2.79,2.57.67,1.09,1.01,2.43,1.01,4.02,0,1.45-.4,2.81-1.21,4.07-.81,1.26-1.94,2.21-3.41,2.82-1.47.62-3.31.92-5.5.92-3.19,0-5.65-.74-7.36-2.21-1.71-1.48-2.74-3.63-3.06-6.45h0Z" fill="#fff"/>
      <path d="M86.91,119.96h10.1c2,0,3.49.08,4.48.25.98.16,1.86.51,2.64,1.04.78.53,1.42,1.23,1.94,2.11.52.88.78,1.86.78,2.95,0,1.18-.32,2.27-.95,3.26-.64.99-1.51,1.73-2.59,2.22,1.54.45,2.72,1.21,3.55,2.29.83,1.08,1.24,2.35,1.24,3.81,0,1.15-.26,2.27-.8,3.35-.54,1.08-1.26,1.95-2.19,2.6-.92.65-2.07,1.05-3.42,1.2-.85.09-2.9.15-6.15.17h-8.6v-25.27h0ZM92.02,124.17v5.84h3.34c1.99,0,3.22-.03,3.71-.09.87-.1,1.56-.4,2.06-.9s.75-1.16.75-1.98-.21-1.42-.64-1.91c-.44-.49-1.08-.78-1.92-.88-.51-.06-1.96-.09-4.36-.09h-2.93ZM92.02,134.22v6.75h4.72c1.84,0,3.01-.05,3.5-.15.76-.14,1.38-.48,1.85-1.01.48-.54.72-1.25.72-2.15,0-.76-.19-1.4-.55-1.93-.37-.53-.9-.92-1.59-1.16-.69-.24-2.21-.36-4.52-.36h-4.12Z" fill="#fff"/>
      <path d="M70.76,50.7l-6.1,2.46-.22-.65-18.38,7.41c-.47.17-.79.62-.79,1.13v29.05l.72.41v3.78h-4.85s0-6.07,0-6.07l.62.17v-27.32c0-2.1,1.42-3.94,3.45-4.49l18.14-7.35-.24-.72,7.64-3.08,7.66,3.17-.23.7,18.06,7.4c1.92.68,3.51,1.79,3.51,4.47l-.1,27.63.62-.28v5.97h-4.85v-3.72l.72-.36.1-29.37c0-.5-.57-.94-1.04-1.11l-18.13-7.42-.22.65-6.1-2.46h0Z" fill="#fff" fill-rule="evenodd"/>
      <polygon points="70.76 60.01 67.36 61.38 67.13 60.6 53.74 66 53.74 92.94 54.46 93.27 54.46 94.3 49.62 94.28 49.62 91.91 50.24 91.92 50.24 63.63 66.03 57.26 65.8 56.58 70.76 54.58 75.72 56.7 75.51 57.33 91.19 63.84 91.19 92.06 91.7 92.12 91.7 94.49 86.85 94.49 86.85 93.38 87.68 92.99 87.68 66.15 74.4 60.67 74.16 61.38 70.76 60.01 70.76 60.01" fill="#fff" fill-rule="evenodd"/>
      <path d="M70.76,36.46l-10.25,4.13.21.63-19.93,8.04c-4.56,2.12-7.47,6.69-7.47,11.71v22.18l-.62-.38v10.98c1.6.24,3.24.38,4.85.42v-8.18s-.83-.58-.83-.58v-24.77h0c0-3.46,2-6.6,5.14-8.06l19.93-8.12.25.75,8.73-3.52,8.77,3.57.26-.78,19.86,8.18c3.01,1.7,4.97,4.42,5.16,7.96,0,0,0,0,0,.01l-.13,25.15-.79.6-.06,8.1c1.61-.04,3.29-.2,4.89-.44l.04-10.86-.54.26.08-23.03c-.08-4.59-3.09-8.95-7.53-11.05l-19.88-8.05.2-.71-10.31-4.16h0Z" fill="#fff" fill-rule="evenodd"/>
      <polygon points="74.06 94.49 74.06 75.18 70.76 73.74 67.36 75.11 67.36 94.49 74.06 94.49 74.06 94.49" fill="#fff" fill-rule="evenodd"/>
      <polygon points="70.76 68.23 79.12 71.72 79.12 94.49 82.52 94.49 82.52 69.43 72.9 65.5 72.92 64.71 70.76 63.83 68.44 64.77 68.61 65.48 58.9 69.39 58.9 94.49 62.2 94.49 62.2 71.68 70.76 68.23 70.76 68.23" fill="#fff" fill-rule="evenodd"/>
      <path d="M70.76,32.63l-11.37,4.58-.23-.68-20.44,8.28c-6.33,2.95-10.38,9.29-10.38,16.26v18.73l.84.61v12.64c-1.71-.42-3.41-.97-5.05-1.62v-14.31s.72.33.72.33v-16.21c0-8.89,5.41-16.89,13.67-20.23l19.51-7.88-.21-.63,12.93-5.21,12.99,5.29-.21.63,19.99,8.16c8.26,3.56,13.24,10.97,13.24,19.86v16.61l.69-.25-.17,14.13c-1.64.65-3.24,1.21-4.95,1.64l.1-12.56.72-.48.2-19.25c-.33-6.97-4.31-13.48-10.68-16.22l-20.27-8.24-.22.65-11.43-4.63h0Z" fill="#fff" fill-rule="evenodd"/>
      <path d="M70.76,23.43l-14.06,5.67-.23-.69-20.37,8.38c-6.92,3.02-15.38,9.02-16.2,24.54v12.91l.83.59-.12,14.75c-2.03-.69-3.56-1.79-4.94-2.94v-15.06s.85.36.85.36l-.03-8.38c0-19.03,10.41-27.27,20.22-30.78l18.68-7.62-.22-.66,15.64-6.33,15.6,6.39-.22.65,20.68,8.45c6.01,2.23,17.15,10.14,18.34,26.33v12.37s.83-.27.83-.27l-.2,14.96c-1.17.83-2.93,2.2-4.97,3.1l.13-14.99.82-.61v-14.37c-.48-5.82-2.76-17.74-16.62-23.54l-20.07-8.2-.24.71-14.13-5.72h0Z" fill="#fff" fill-rule="evenodd"/>
      <path d="M70.86,14.43l-16.77,6.76-.35-.69-21,8.65c-9.11,3.6-20.17,14.39-21,30.68l-.08,8.87.72.56-.2,14.27c-2.45-1.94-3.73-3.61-4.95-5.32l.1-12.32.72.46.13-6.03c.58-19.15,12.63-30.15,24.52-34.98l20.03-8.26-.22-.67,18.25-7.36,18.28,7.38-.16.75,19.33,7.93c8.56,2.97,24.38,13.79,25.38,33.78v7.78l.77-.4v12.3c-.77,1.13-2.63,3.65-5.01,5.63l.12-14.62.72-.54-.11-9.68c-.74-12.21-7.94-25.58-24.64-31.67l-17.62-7.29-.27.82-16.67-6.8h0Z" fill="#fff" fill-rule="evenodd"/>
      <path d="M3.2,63.16l.19-6.38c3.58-24.61,21.83-34.33,29.55-36.83l18.26-7.49.21.63,19.42-7.82,19.4,7.88.21-.63,15.15,6.12c26.52,9.04,32.32,29.2,33.06,41.43v3.31s-.76.65-.76.65l.03,8.16c3.6-5.99,3.81-14.58,3.81-16.68-3.73-27.19-25.46-36.69-33.37-39.45l-16.83-6.84.24-.71L70.91,0l-21.03,8.48.23.69-17.26,7.12C14.9,22.49,2.16,36.75,0,55.82c0,5.42,1.15,10.78,3.37,15.72.11.22.26.38.44.46v-8.36l-.62-.48h0Z" fill="#fff" fill-rule="evenodd"/>
    </g>
  </g>
</svg>